<svg version="1.1" id="Capa_1" xmlns="http://www.w3.org/2000/svg" x="0" y="0" viewBox="0 0 480.137 480.137" xml:space="preserve"><path d="M459.063 21.086c-28.185-27.986-73.671-27.986-101.856 0a8.018 8.018 0 00-1.744 2.632 7.794 7.794 0 00-.552 2.76 2.79 2.79 0 00-.056.272 7.989 7.989 0 00.608 3.048 7.788 7.788 0 001.736 2.616l39.624 39.624-15.32 15.312a207.785 207.785 0 00-140.992-55.2c-.136-.04-.24-.112-.376-.112s-.24.072-.376.072A207.754 207.754 0 0098.767 87.358l-15.32-15.32 39.624-39.624a7.788 7.788 0 001.736-2.616c.4-.966.607-2.002.608-3.048 0-.096-.048-.176-.056-.272a7.044 7.044 0 00-2-4.944c-.12-.136-.16-.304-.288-.432C94.942-7.031 49.332-7.035 21.199 21.094c-28.134 28.129-28.137 73.739-.008 101.872.112.12.272.152.392.264a7.843 7.843 0 002.224 1.472c.873.343 1.799.53 2.736.552.096 0 .192.056.296.056a8.17 8.17 0 003.04-.6 7.998 7.998 0 002.616-1.744l39.64-39.616 15.32 15.32C9.447 182.998 14.57 314.596 98.897 392.604a207.964 207.964 0 0022.958 18.402l-55.384 55.376a8 8 0 00-.196 11.312 8 8 0 0011.508 0l57.896-57.896c64.542 37.654 144.354 37.654 208.896 0l57.896 57.896a8 8 0 0011.312-.196 8 8 0 000-11.116l-55.384-55.376c94.495-65.369 118.106-194.964 52.737-289.459a208.205 208.205 0 00-18.337-22.877l15.336-15.32 39.624 39.624a7.998 7.998 0 002.616 1.744 8.17 8.17 0 003.04.6c.104 0 .2-.056.296-.056a7.995 7.995 0 002.736-.552 7.843 7.843 0 002.224-1.472c.12-.112.28-.144.392-.264 27.98-28.184 27.959-73.683 0-101.888zM27.271 105.59C8.823 80.739 14.013 45.639 38.864 27.19c19.835-14.724 46.972-14.724 66.807 0l-78.4 78.4zm404.52 126.448h-39.656a8 8 0 000 16h39.8c-4.277 99.685-84.115 179.523-183.8 183.8v-39.8a8 8 0 00-16 0v39.8c-99.685-4.277-179.523-84.115-183.8-183.8h39.8a8 8 0 000-16H48.479a191.073 191.073 0 0155.464-127.512c.128-.112.288-.152.408-.272s.16-.28.272-.408a190.938 190.938 0 01127.512-55.464v39.656a8 8 0 0016 0V48.382a190.927 190.927 0 01127.512 55.464c.112.128.152.288.272.408s.28.16.408.272a191.084 191.084 0 0155.464 127.512zm21.192-126.464l-78.4-78.4c24.742-18.557 59.843-13.542 78.4 11.2 14.933 19.912 14.933 47.289 0 67.2z"/><path d="M353.903 165.11h.016l-90.992 52.528c-12.287-12.592-32.456-12.839-45.048-.552-.186.182-.37.366-.552.552l-49.416-28.528a8 8 0 10-8.091 13.803l.092.053 49.496 28.576c-4.964 16.962 4.763 34.736 21.725 39.699 16.962 4.964 34.736-4.763 39.699-21.725a32.007 32.007 0 000-17.975l91.072-52.576a8 8 0 00-8.001-13.855zm-113.768 90.928c-8.837 0-16-7.163-16-16s7.163-16 16-16 16 7.163 16 16-7.164 16-16 16z"/></svg>