<svg id="Layer_1_1_" height="512" viewBox="0 0 64 64" width="512" xmlns="http://www.w3.org/2000/svg"><path d="M13.464 36.8A7.942 7.942 0 0010 36c-4.411 0-8 3.589-8 8s3.589 8 8 8a7.997 7.997 0 006.648-3.557l7.557 3.783A7.98 7.98 0 0024 54c0 4.411 3.589 8 8 8s8-3.589 8-8a7.947 7.947 0 00-1.375-4.478l10.619-11.103A7.957 7.957 0 0054 40c4.411 0 8-3.589 8-8s-3.589-8-8-8a7.953 7.953 0 00-4.898 1.688l-10.79-10.79A7.953 7.953 0 0040 10c0-4.411-3.589-8-8-8s-8 3.589-8 8c0 .608.074 1.199.204 1.769l-7.092 2.584C15.782 11.772 13.097 10 10 10c-4.411 0-8 3.589-8 8s3.589 8 8 8a7.933 7.933 0 003.2-.673l3.681 6.195zM10 50c-3.309 0-6-2.691-6-6s2.691-6 6-6 6 2.691 6 6-2.691 6-6 6zm7.539-3.349A7.953 7.953 0 0018 44a7.982 7.982 0 00-2.855-6.117l2.876-4.442 8.671 14.591a8.029 8.029 0 00-1.794 2.303zM32 18a7.953 7.953 0 004.898-1.688l10.791 10.791a7.964 7.964 0 00-1.41 2.839l-6.282-.864c-.001-.026.003-.052.003-.078 0-4.411-3.589-8-8-8a7.996 7.996 0 00-6.648 3.557l-1.193-.596 4.378-6.761c1.049.507 2.221.8 3.463.8zm1 28.069V36.93a8.01 8.01 0 006.722-5.872l6.282.864c0 .026-.004.052-.004.078 0 1.91.674 3.663 1.795 5.04l-10.5 10.979A7.966 7.966 0 0033 46.069zM32 23c3.309 0 6 2.691 6 6s-2.691 6-6 6-6-2.691-6-6 2.691-6 6-6zm-7.539 3.349A7.953 7.953 0 0024 29c0 4.072 3.06 7.436 7 7.931v9.139a7.934 7.934 0 00-2.658.824l-9.108-15.327 3.831-5.916zM32 60c-3.309 0-6-2.691-6-6s2.691-6 6-6 6 2.691 6 6-2.691 6-6 6zm22-34c3.309 0 6 2.691 6 6s-2.691 6-6 6-6-2.691-6-6 2.691-6 6-6zM32 4c3.309 0 6 2.691 6 6s-2.691 6-6 6-6-2.691-6-6 2.691-6 6-6zm-7.112 9.647a8.054 8.054 0 001.967 2.47l-4.496 6.944-4.82-2.41A7.953 7.953 0 0018 18c0-.608-.074-1.199-.204-1.769zM4 18c0-3.309 2.691-6 6-6s6 2.691 6 6-2.691 6-6 6-6-2.691-6-6zm10.915 6.299a8.067 8.067 0 001.733-1.856l4.617 2.308-3.171 4.897z"/></svg>