<svg version="1.1" id="Capa_1" xmlns="http://www.w3.org/2000/svg" x="0" y="0" viewBox="0 0 512 512" xml:space="preserve"><path d="M355.436 272.92c-46.204 0-83.793 37.59-83.793 83.793 0 46.204 37.589 83.794 83.793 83.794 46.204 0 83.793-37.59 83.793-83.794.001-46.203-37.589-83.793-83.793-83.793zm0 152.379c-37.818 0-68.585-30.768-68.585-68.586s30.768-68.585 68.585-68.585c37.817 0 68.585 30.768 68.585 68.585.001 37.818-30.766 68.586-68.585 68.586z"/><path d="M355.436 320.404c-20.022 0-36.309 16.288-36.309 36.309s16.288 36.309 36.309 36.309c20.021 0 36.309-16.288 36.309-36.309s-16.288-36.309-36.309-36.309zm0 57.411c-11.636 0-21.101-9.465-21.101-21.101s9.466-21.102 21.101-21.102 21.102 9.465 21.102 21.102c0 11.636-9.466 21.101-21.102 21.101z"/><path d="M438.21 223.883V65.267a7.605 7.605 0 00-7.604-7.604h-28.099a7.605 7.605 0 000 15.208h20.495v14.032H179.23V72.871h187.79a7.605 7.605 0 000-15.208H171.626a7.605 7.605 0 00-7.604 7.604v29.24a7.605 7.605 0 007.604 7.604h38.022l-30.636 113.102h-51.578v-85.355c0-12.069-9.784-21.854-21.854-21.854h-3.032V58.56c0-9.851 7.986-17.837 17.837-17.837h7.736a7.605 7.605 0 000-15.208h-7.736c-18.25 0-33.045 14.794-33.045 33.045v49.445h-1.22c-12.069 0-21.854 9.784-21.854 21.854v85.355H41.849c-23.111 0-41.846 18.735-41.846 41.846v142.866c0 .04-.003.078-.003.117 0 47.665 38.778 86.442 86.442 86.442 45.1 0 82.221-34.724 86.088-78.836h12.304v-.002h51.251c19.838 46.31 65.866 78.838 119.352 78.838 69.001 0 125.588-54.135 129.541-122.162h19.418c4.2 0 7.604-3.411 7.604-7.611-.002-55.957-29.518-105.14-73.79-132.829zM79.477 129.858a6.654 6.654 0 016.646-6.646h19.46a6.654 6.654 0 016.646 6.646v85.352H79.477v-85.352zm6.965 341.418c-39.278 0-71.233-31.955-71.234-71.232h.003v-.119c.064-39.224 31.991-71.117 71.231-71.117 39.279 0 71.234 31.956 71.234 71.235 0 39.279-31.955 71.233-71.234 71.233zm112.438-78.837h-6.443v-62.66a7.605 7.605 0 00-15.209 0v62.662h-4.698c-3.865-44.115-40.987-78.841-86.088-78.841-29.526 0-55.631 14.889-71.231 37.544v-94.075c0-14.717 11.931-26.648 26.648-26.648h135.37v63.872a7.605 7.605 0 0015.208 0v-70.467l32.969-121.714h197.598V215.5a155.3 155.3 0 00-13.568-5.745v-86.472a7.605 7.605 0 00-7.604-7.604H241.609a7.602 7.602 0 00-7.339 5.616l-27.999 103.361a7.615 7.615 0 002.959 8.208c1.311.934 2.914 1.37 4.523 1.385l43.738.426c-35.711 28.72-58.611 72.755-58.611 122.044v35.72zm195.347-261.553v74.134a156.32 156.32 0 00-38.792-4.867c-27.418 0-53.207 7.094-75.643 19.53l-56.268-.547 23.905-88.25h146.798zm-38.791 340.39c-63.171 0-114.563-51.393-114.563-114.563s51.393-114.562 114.563-114.562 114.562 51.393 114.562 114.562c.001 63.171-51.391 114.563-114.562 114.563zm129.543-122.162c-3.949-68.031-60.538-122.17-129.542-122.17-71.555 0-129.771 58.215-129.771 129.77 0 12.386 1.747 24.371 5.002 35.724h-16.581v-35.72c0-77.945 63.409-141.357 141.347-141.357 75.395 0 137.193 59.329 141.156 133.753h-11.611z"/><path d="M86.442 354.264c-25.242 0-45.778 20.536-45.778 45.778 0 25.242 20.536 45.778 45.778 45.778s45.778-20.536 45.778-45.778c0-25.242-20.536-45.778-45.778-45.778zm0 76.348c-16.856 0-30.57-13.714-30.57-30.57 0-16.857 13.714-30.57 30.57-30.57s30.57 13.714 30.57 30.57-13.714 30.57-30.57 30.57zM35.136 245.167a7.605 7.605 0 00-7.604 7.604v52.755a7.605 7.605 0 007.604 7.604c18.737 0 33.982-15.244 33.982-33.982 0-18.736-15.243-33.981-33.982-33.981zm7.604 51.147v-34.328c6.575 2.924 11.17 9.517 11.17 17.165 0 7.647-4.595 14.239-11.17 17.163zm103.949-55.943h-34.53a7.605 7.605 0 000 15.208h34.53a7.605 7.605 0 000-15.208zm0 23.981h-34.53a7.605 7.605 0 000 15.208h34.53a7.605 7.605 0 000-15.208zm0 23.982h-34.53a7.605 7.605 0 000 15.208h34.53a7.605 7.605 0 000-15.208z"/></svg>